<?xml version="1.0" encoding="utf-8"?>
<!-- Generator: Adobe Illustrator 24.0.0, SVG Export Plug-In . SVG Version: 6.00 Build 0)  -->
<svg version="1.1" id="Layer_1" xmlns="http://www.w3.org/2000/svg" xmlns:xlink="http://www.w3.org/1999/xlink" x="0px" y="0px"
	 viewBox="0 0 453.5 156.4" style="enable-background:new 0 0 453.5 156.4;" xml:space="preserve">
<style type="text/css">
	.st0{fill:#FFFFFF;}
</style>
<g>
	<path class="st0" d="M423.3,71.3c-0.5-0.5-1.3-0.3-1.7,0.2c-7.2,11.5-23.3,14.7-31.9,10.3c-0.8-0.4-1.6-1-0.9-1.8
		c0,0,29.3-24.4,32.9-27.4c4-3.4,4.6-9.3,1.3-13.3c-6.5-7.6-15.5-11.9-25.3-11.9c-18.4,0-32.8,14.8-32.8,33.2c0,7.3,2.3,14,6.3,19.5
		c-2.2,2.2-5.3,3.6-9.4,3.6c-7.1,0-13-5.6-13-12.7V53.3c0-4.5-0.4-10.3-3.2-15.3c-2.4-4.3-7.7-9.5-18.6-9.5h-16.7l0-3.9
		c0-8-6.5-14.5-14.5-14.5c-8,0-14.5,6.5-14.5,14.5c0,8,6.5,14.7,14.5,14.7h3.9v29.3c0,10.8-5.8,15.2-12.5,15.2
		c-6.7,0-12.2-4.6-12.2-10.7l0-43.1c0-0.6-0.5-1.1-1.1-1.1h-9.1c-0.6,0-1.1,0.5-1.1,1.1l0,34.1c-0.2,10.5-7.5,19-18.3,19
		c-10.1,0-18.3-7.5-18.3-16.8V29.9c0-0.6-0.5-1.1-1.1-1.1H217c-0.6,0-1.1,0.5-1.1,1.1c0,0,0,36.3,0,36.3
		c-0.2,9.2-7.6,16.8-16.8,16.8c-11.1,0-17.6-7.7-17.6-17.2V39.5h22.1c0.6,0,1.1-0.5,1.1-1.1v-8.6c0-0.6-0.5-1.1-1.1-1.1h-22.1V10
		c0-0.6-0.5-1.1-1.1-1.1h-8.9c-0.6,0-1.1,0.5-1.1,1.1v49.3c-0.4,8-7.9,24.2-29.6,24.4c-10.8,0.1-20-5.6-23.4-15.2
		c-3.8-10.9,0.6-31,18.4-30.9c9.1,0,14.1,5.3,14.6,10.3c0,0.5,0.4,1.1,1.2,1.1c0.3,0,7.3,0,8.2,0c0.9,0,1.2-0.8,1.2-1.3
		c0,0,0,0.1,0,0.1c-0.6-11-10.3-20.5-25.2-20.3c-14.1,0.1-30.7,10-31.1,32.6c-0.1,5.4,1.4,12.7,5.5,19.1c-2.4,3.3-6.2,4.7-10.1,4.7
		c-6.7,0-12.2-4.6-12.2-10.7l0-43.6c0-0.6-0.5-1.1-1.1-1.1h-9.1c-0.6,0-1.1,0.5-1.1,1.1c0,0,0,22,0,31.7c0,11.1-0.6,16.1,3.6,22.5
		c4.2,6.4,11.5,10.5,19.9,10.5c6.8,0,12.7-2.8,16.6-7.7c5.5,4.5,13.1,7.6,23.7,7.7c14.1,0.2,27.2-6.8,32.8-15.6c0,0,0,0,0,0
		c4.4,9.1,13.5,15.5,25.3,15.7c9.5,0.1,17.8-4.9,22.5-12.4c5.3,7.4,14.3,12.3,24.5,12.3c9,0,16.7-4.3,21.9-10.5
		c4.2,6.3,11.5,10.5,19.9,10.5c13,0,23.1-9.9,23.1-25.9v-29h17.3c7.9,0,10.5,3.3,10.5,13.5v18.4c0,12.7,10.9,23,24.2,23
		c6.2,0,12.1-2.3,16.5-6.2c5.4,3.9,12.1,6.2,19.3,6.2c13.3,0,24.8-6.6,31.1-16.2c0.3-0.5,0.2-1.1-0.2-1.5L423.3,71.3z M299.7,28.6
		c0,0-3.8,0-4.2,0c-2.3,0-4.2-1.9-4.2-4.2c0-2.3,1.9-4.2,4.2-4.2c2.3,0,4.2,1.9,4.2,4.2V28.6z M379.7,72.7c-6.7-11-3-23.8,3.7-29.5
		c11.7-9.9,25.9-3.8,30.2,0.8c0.6,0.7,0.6,1.7-0.1,2.2l-32.1,26.7C380.8,73.4,380,73.2,379.7,72.7z"/>
	<path class="st0" d="M59,57.3c5.3-5.6,8.2-13.5,8.2-22c0-8.6-2.9-16.4-8.2-22c-5.4-5.8-13-9-21.3-9H5.1C4.4,4.2,4,4.7,4,5.3v86.8
		c0,0.6,0.5,1.1,1.1,1.1h9.1c0.6,0,1.1-0.5,1.1-1.1V67.4c0-0.6,0.5-1.1,1.1-1.1h21.4C46,66.3,53.6,63.1,59,57.3z M37.7,55.5H16.3
		c-0.6,0-1.1-0.5-1.1-1.1V16.1c0-0.6,0.5-1.1,1.1-1.1h21.4c10.6,0,18.2,8.3,18.2,20.2C55.9,47.1,48.3,55.5,37.7,55.5z"/>
	<path class="st0" d="M81.9,19.1h5.8c0.5,0,1-0.4,1-1v-5.9c0-3.8-3.1-7-6.8-7c-3.9,0-7,3.1-7,7C74.9,16,78.1,19.1,81.9,19.1z"/>
	<polygon class="st0" points="429.2,30 432,30 432,37.4 433.6,37.4 433.6,30 436.5,30 436.5,28.6 429.2,28.6 	"/>
	<path class="st0" d="M445.7,28.6H444l-1.7,4.3c-0.2,0.5-0.4,1.3-0.4,1.3h0c0,0-0.2-0.8-0.4-1.3l-1.7-4.3H438l-0.7,8.7h1.6l0.4-4.9
		c0-0.6,0-1.4,0-1.4h0c0,0,0.3,0.9,0.5,1.4l1.4,3.4h1.4l1.4-3.4c0.2-0.5,0.5-1.4,0.5-1.4h0c0,0,0,0.8,0,1.4l0.4,4.9h1.6L445.7,28.6z
		"/>
</g>
<g>
	<g>
		<path class="st0" d="M4.6,120c1.3-0.3,3.5-0.5,5.6-0.5c3.1,0,5,0.5,6.5,1.7c1.2,0.9,2,2.3,2,4.2c0,2.3-1.5,4.3-4,5.2v0.1
			c2.2,0.5,4.9,2.4,4.9,5.9c0,2-0.8,3.6-2,4.7c-1.6,1.5-4.3,2.2-8.1,2.2c-2.1,0-3.7-0.1-4.7-0.3V120z M7.7,129.7h2.8
			c3.2,0,5.1-1.7,5.1-4c0-2.7-2.1-3.9-5.2-3.9c-1.4,0-2.2,0.1-2.7,0.2V129.7z M7.7,141c0.6,0.1,1.5,0.1,2.6,0.1
			c3.2,0,6.1-1.2,6.1-4.6c0-3.2-2.8-4.6-6.1-4.6H7.7V141z"/>
		<path class="st0" d="M24.8,126.3l3.7,10c0.4,1.1,0.8,2.5,1.1,3.5h0.1c0.3-1,0.7-2.3,1.1-3.5l3.4-10h3.3l-4.6,12.1
			c-2.2,5.8-3.7,8.8-5.8,10.6c-1.5,1.3-3,1.8-3.8,2l-0.8-2.6c0.8-0.2,1.8-0.7,2.7-1.5c0.8-0.7,1.9-1.9,2.6-3.4
			c0.1-0.3,0.2-0.6,0.2-0.7c0-0.2-0.1-0.4-0.2-0.8l-6.2-15.7H24.8z"/>
		<path class="st0" d="M47.7,119.7h12.7v2.6h-9.7v7.9h8.9v2.5h-8.9v10.7h-3.1V119.7z"/>
		<path class="st0" d="M77.8,138.7c0,1.8,0,3.3,0.1,4.7h-2.7l-0.2-2.8h-0.1c-0.8,1.4-2.6,3.2-5.6,3.2c-2.7,0-5.9-1.5-5.9-7.4v-9.9
			h3.1v9.4c0,3.2,1,5.4,3.8,5.4c2.1,0,3.5-1.4,4.1-2.8c0.2-0.4,0.3-1,0.3-1.6v-10.4h3.1V138.7z"/>
		<path class="st0" d="M82.9,118.4H86v24.9h-3.1V118.4z"/>
		<path class="st0" d="M105.7,140.8c0,3.9-0.8,6.3-2.4,7.8c-1.7,1.5-4.1,2-6.2,2c-2,0-4.3-0.5-5.7-1.4l0.8-2.4
			c1.1,0.7,2.9,1.4,5,1.4c3.2,0,5.5-1.7,5.5-6v-1.9h-0.1c-0.9,1.6-2.8,2.8-5.4,2.8c-4.2,0-7.2-3.6-7.2-8.3c0-5.8,3.8-9,7.7-9
			c2.9,0,4.5,1.5,5.3,2.9h0.1l0.1-2.6h2.7c-0.1,1.2-0.1,2.6-0.1,4.6V140.8z M102.6,133c0-0.5,0-1-0.2-1.4c-0.6-1.8-2-3.3-4.3-3.3
			c-2.9,0-5.1,2.5-5.1,6.4c0,3.3,1.7,6.1,5,6.1c1.9,0,3.7-1.2,4.3-3.2c0.2-0.5,0.2-1.1,0.2-1.6V133z"/>
		<path class="st0" d="M112.5,135.4c0.1,4.2,2.7,5.9,5.8,5.9c2.2,0,3.6-0.4,4.7-0.9l0.6,2.2c-1.1,0.5-3,1.1-5.7,1.1
			c-5.2,0-8.4-3.5-8.4-8.6c0-5.1,3-9.1,8-9.1c5.6,0,7,4.8,7,8c0,0.6,0,1.1-0.1,1.4H112.5z M121.6,133.2c0-1.9-0.8-5-4.3-5
			c-3.2,0-4.5,2.8-4.7,5H121.6z"/>
		<path class="st0" d="M128.4,130.9c0-1.8,0-3.2-0.1-4.6h2.7l0.2,2.8h0.1c0.8-1.6,2.8-3.2,5.6-3.2c2.4,0,6,1.4,6,7.2v10.1h-3.1v-9.8
			c0-2.7-1-5-3.9-5c-2,0-3.6,1.4-4.1,3.2c-0.1,0.4-0.2,0.9-0.2,1.4v10.2h-3.1V130.9z"/>
		<path class="st0" d="M151.5,122.3v4.1h4.4v2.4h-4.4v9.2c0,2.1,0.6,3.3,2.3,3.3c0.8,0,1.3-0.1,1.8-0.2l0.1,2.4
			c-0.6,0.2-1.5,0.4-2.7,0.4c-1.4,0-2.6-0.5-3.3-1.3c-0.8-0.9-1.2-2.5-1.2-4.5v-9.3h-2.6v-2.4h2.6v-3.2L151.5,122.3z"/>
		<path class="st0" d="M185,142.3c-1.4,0.5-4.1,1.3-7.3,1.3c-3.6,0-6.5-0.9-8.8-3.1c-2-2-3.3-5.1-3.3-8.8c0-7.1,4.9-12.2,12.8-12.2
			c2.7,0,4.9,0.6,5.9,1.1l-0.8,2.5c-1.3-0.6-2.8-1-5.2-1c-5.8,0-9.5,3.6-9.5,9.5c0,6,3.6,9.6,9.1,9.6c2,0,3.4-0.3,4.1-0.6v-7.1h-4.8
			v-2.5h7.8V142.3z"/>
		<path class="st0" d="M191.4,135.4c0.1,4.2,2.7,5.9,5.8,5.9c2.2,0,3.6-0.4,4.7-0.9l0.6,2.2c-1.1,0.5-3,1.1-5.7,1.1
			c-5.2,0-8.4-3.5-8.4-8.6c0-5.1,3-9.1,8-9.1c5.6,0,7,4.8,7,8c0,0.6,0,1.1-0.1,1.4H191.4z M200.5,133.2c0-1.9-0.8-5-4.3-5
			c-3.2,0-4.5,2.8-4.7,5H200.5z"/>
		<path class="st0" d="M207.3,130.9c0-1.8,0-3.2-0.1-4.6h2.7l0.2,2.8h0.1c0.8-1.6,2.8-3.2,5.6-3.2c2.4,0,6,1.4,6,7.2v10.1h-3.1v-9.8
			c0-2.7-1-5-3.9-5c-2,0-3.6,1.4-4.1,3.2c-0.1,0.4-0.2,0.9-0.2,1.4v10.2h-3.1V130.9z"/>
		<path class="st0" d="M228.5,135.4c0.1,4.2,2.7,5.9,5.8,5.9c2.2,0,3.6-0.4,4.7-0.9l0.6,2.2c-1.1,0.5-3,1.1-5.7,1.1
			c-5.2,0-8.4-3.5-8.4-8.6c0-5.1,3-9.1,8-9.1c5.6,0,7,4.8,7,8c0,0.6,0,1.1-0.1,1.4H228.5z M237.5,133.2c0-1.9-0.8-5-4.3-5
			c-3.2,0-4.5,2.8-4.7,5H237.5z"/>
		<path class="st0" d="M248.1,122.3v4.1h4.4v2.4h-4.4v9.2c0,2.1,0.6,3.3,2.3,3.3c0.8,0,1.3-0.1,1.8-0.2l0.1,2.4
			c-0.6,0.2-1.5,0.4-2.7,0.4c-1.4,0-2.6-0.5-3.3-1.3c-0.8-0.9-1.2-2.5-1.2-4.5v-9.3h-2.6v-2.4h2.6v-3.2L248.1,122.3z"/>
		<path class="st0" d="M259.4,121.6c0,1.1-0.7,1.9-2,1.9c-1.1,0-1.9-0.8-1.9-1.9c0-1.1,0.8-1.9,1.9-1.9
			C258.6,119.6,259.4,120.5,259.4,121.6z M256,143.3v-17h3.1v17H256z"/>
		<path class="st0" d="M276.3,142.7c-0.8,0.4-2.6,1-4.9,1c-5.1,0-8.5-3.5-8.5-8.7c0-5.2,3.6-9.1,9.1-9.1c1.8,0,3.4,0.5,4.3,0.9
			l-0.7,2.4c-0.7-0.4-1.9-0.8-3.6-0.8c-3.9,0-6,2.9-6,6.4c0,3.9,2.5,6.4,5.9,6.4c1.8,0,2.9-0.4,3.8-0.8L276.3,142.7z"/>
		<path class="st0" d="M279.5,140.2c0.9,0.6,2.6,1.2,4.1,1.2c2.2,0,3.3-1.1,3.3-2.5c0-1.5-0.9-2.2-3.1-3.1c-3.1-1.1-4.5-2.8-4.5-4.8
			c0-2.7,2.2-5,5.9-5c1.7,0,3.2,0.5,4.1,1.1l-0.7,2.2c-0.7-0.4-1.9-1-3.5-1c-1.8,0-2.8,1.1-2.8,2.3c0,1.4,1,2,3.2,2.9
			c2.9,1.1,4.5,2.6,4.5,5.1c0,3-2.4,5.1-6.3,5.1c-1.9,0-3.6-0.5-4.8-1.2L279.5,140.2z"/>
	</g>
</g>
</svg>
