<?xml version="1.0" encoding="utf-8"?>
<!-- Generator: Adobe Illustrator 25.4.1, SVG Export Plug-In . SVG Version: 6.00 Build 0)  -->
<svg version="1.1" id="Layer_1" xmlns="http://www.w3.org/2000/svg" xmlns:xlink="http://www.w3.org/1999/xlink" x="0px" y="0px"
	 viewBox="0 0 388 272" style="enable-background:new 0 0 388 272;" xml:space="preserve">
<style type="text/css">
	.st0{fill:none;}
	.st1{fill:#27387A;}
	.st2{fill:#F16458;}
	.st3{fill:#27397A;}
	.st4{fill:#FFFFFF;}
</style>
<rect x="-5.6" y="2.4" class="st0" width="370" height="269.2"/>
<path class="st1" d="M217.5,112.3c-0.2-0.2-0.5-0.2-0.6,0c0,0,0,0-0.1,0.1c-3,4.7-9.6,6-13.1,4.2c-0.3-0.2-0.7-0.4-0.4-0.7
	c0,0,12-10,13.5-11.2c1.6-1.3,1.9-3.8,0.5-5.4c0,0,0,0,0,0c-4.9-5.7-13.4-6.3-19.1-1.4c-5.3,4.6-6.3,12.5-2.2,18.2
	c-1,1-2.4,1.5-3.9,1.5c-2.9,0-5.3-2.3-5.3-5.2c0,0,0,0,0,0V105c0.1-2.2-0.3-4.3-1.3-6.3c-1-1.8-3.1-3.9-7.6-3.9h-6.9v-1.6
	c0-3.3-2.7-6-6-6c-3.3,0-6,2.7-6,6c0,3.3,2.7,6,6,6c0,0,0,0,0,0h1.6v12c0,4.4-2.4,6.2-5.1,6.2s-5-1.9-5-4.4V95.3
	c0-0.3-0.2-0.5-0.5-0.5h-3.7c-0.3,0-0.5,0.2-0.5,0.5v14c-0.1,4.3-3.1,7.8-7.5,7.8c-4.1,0-7.5-3.1-7.5-6.9V95.3
	c0-0.3-0.2-0.5-0.4-0.5h-3.7c-0.3,0-0.5,0.2-0.4,0.5v14.9c0,3.8-3.1,6.9-6.9,6.9c-3.7,0.2-7-2.6-7.2-6.4c0-0.2,0-0.4,0-0.6V99.3h9.1
	c0.3,0,0.5-0.2,0.5-0.5v-3.5c0-0.3-0.2-0.5-0.5-0.4h-9.1v-7.7c0-0.3-0.2-0.5-0.5-0.4h-3.7c-0.2,0-0.4,0.2-0.4,0.4v20.2
	c-0.2,3.3-3.2,9.9-12.1,10c-4.4,0-8.2-2.3-9.6-6.3c-1.6-4.5,0.2-12.7,7.6-12.7c3.7,0,5.8,2.2,6,4.2c0,0.3,0.2,0.5,0.5,0.4h3.3
	c0.3,0,0.5-0.2,0.5-0.5c0,0,0,0,0-0.1l0,0c-0.3-4.5-4.2-8.4-10.3-8.3c-5.8,0.1-12.6,4.1-12.8,13.4c0,2.8,0.7,5.5,2.2,7.9
	c-1,1.3-2.5,2-4.2,1.9c-2.8,0-5-1.9-5-4.4V95.2c0-0.3-0.2-0.5-0.5-0.4h-3.7c-0.3,0-0.5,0.2-0.5,0.4v13c0,4.6-0.2,6.6,1.5,9.2
	c1.8,2.7,4.9,4.3,8.2,4.3c2.6,0.1,5.2-1.1,6.8-3.2c2.8,2.1,6.2,3.3,9.7,3.2c5.8,0.1,11.2-2.8,13.4-6.4l0,0c1.9,4,6,6.5,10.4,6.4
	c3.8,0,7.3-1.9,9.2-5.1c2.3,3.2,6,5.1,10,5.1c3.5,0,6.8-1.6,9-4.3c1.8,2.7,4.9,4.3,8.1,4.3c5.3,0,9.5-4.1,9.5-10.6V99.2h7.1
	c3.3,0,4.3,1.3,4.3,5.5v7.5c0.1,5.3,4.6,9.6,9.9,9.4c2.5,0,4.9-0.9,6.8-2.6c2.3,1.7,5.1,2.5,7.9,2.6c5.1,0.1,10-2.4,12.8-6.6
	c0.1-0.2,0.1-0.5-0.1-0.6L217.5,112.3z M166.8,94.8h-1.7c-1,0-1.7-0.8-1.7-1.7s0.8-1.7,1.7-1.7c1,0,1.7,0.8,1.7,1.7c0,0,0,0,0,0
	V94.8z M199.6,112.9c-2.4-3.9-1.8-8.9,1.5-12.1c3.6-3,8.9-2.9,12.4,0.3c0.3,0.2,0.3,0.6,0,0.9c0,0,0,0,0,0l-13.2,11
	c-0.2,0.2-0.5,0.1-0.6,0C199.7,113,199.6,112.9,199.6,112.9z"/>
<path class="st1" d="M59.3,84.8H45.9c-0.3,0-0.5,0.2-0.5,0.5v35.6c0,0.3,0.2,0.5,0.5,0.5h3.7c0.3,0,0.5-0.2,0.5-0.5v-10.1
	c0-0.2,0.2-0.5,0.4-0.5c0,0,0,0,0,0h8.8c3.3,0,6.5-1.3,8.7-3.7c4.5-5.2,4.5-12.9,0-18.1C65.7,86.1,62.6,84.7,59.3,84.8z M59.3,105.9
	h-8.8c-0.2,0-0.5-0.2-0.5-0.4c0,0,0,0,0,0V89.7c0-0.3,0.2-0.5,0.5-0.5h8.8c4.3,0,7.5,3.4,7.5,8.3S63.6,105.9,59.3,105.9z"/>
<path class="st1" d="M77.4,90.9h2.4c0.2,0,0.4-0.2,0.4-0.4v-2.4c0-1.6-1.2-2.8-2.8-2.9c-1.6,0-2.8,1.2-2.9,2.8c0,0,0,0.1,0,0.1
	C74.5,89.7,75.8,90.9,77.4,90.9z"/>
<polygon class="st1" points="218.9,95.4 220.1,95.4 220.1,98.4 220.7,98.4 220.7,95.4 221.9,95.4 221.9,94.8 218.9,94.8 "/>
<path class="st1" d="M225.7,94.8H225l-0.7,1.8c-0.1,0.2-0.2,0.5-0.2,0.5l0,0c0,0-0.1-0.3-0.2-0.5l-0.7-1.8h-0.7l-0.3,3.6h0.6l0.1-2
	c0-0.2,0-0.6,0-0.6l0,0c0,0,0.1,0.4,0.2,0.6l0.6,1.4h0.6l0.6-1.4c0.1-0.2,0.2-0.6,0.2-0.6l0,0c0,0,0,0.3,0,0.6l0.1,2h0.7L225.7,94.8
	z"/>
<path class="st2" d="M288.3,27.6h0.5v0.2c0,0.1,0,0.1,0,0.2l0,0c0.2-0.4,0.6-0.6,1-0.5c0.8,0,1.3,0.6,1.3,1.5
	c0.1,0.7-0.4,1.4-1.2,1.5c0,0-0.1,0-0.1,0c-0.4,0-0.7-0.2-0.9-0.5l0,0c0,0,0,0.1,0,0.2v1.3h-0.5L288.3,27.6z M289.6,30.1
	c0.5,0,0.8-0.4,0.8-1s-0.3-1-0.8-1s-0.8,0.3-0.8,1C288.7,29.6,289.1,30,289.6,30.1L289.6,30.1z"/>
<path class="st2" d="M291.5,26.5h0.5V27h-0.5V26.5z M291.5,27.6h0.5v2.9h-0.5V27.6z"/>
<path class="st2" d="M294.1,27.5c0.4,0,0.8,0.1,1.1,0.4l-0.3,0.4c-0.2-0.2-0.5-0.3-0.8-0.3c-0.6,0-1,0.4-1,1s0.4,1,1,1
	c0.3,0,0.7-0.2,0.9-0.4l0.2,0.4c-0.3,0.3-0.7,0.5-1.1,0.5c-0.8,0.1-1.6-0.5-1.7-1.3c-0.1-0.8,0.5-1.6,1.3-1.7
	C293.9,27.5,294,27.5,294.1,27.5L294.1,27.5z"/>
<path class="st2" d="M295.9,28.1h-0.4v-0.5h0.4v-0.8h0.5v0.8h0.7v0.5h-0.7v1.3c0,0.3,0.2,0.6,0.5,0.6c0,0,0.1,0,0.1,0h0.1v0.5H297
	c-0.5,0.1-1-0.3-1.1-0.9c0-0.1,0-0.1,0-0.2L295.9,28.1z"/>
<path class="st2" d="M297.6,27.6h0.5v1.7c0,0.4,0.1,0.7,0.5,0.7c0.6,0,1-0.5,0.9-1.1c0,0,0,0,0,0v-1.3h0.5v2.9h-0.5v-0.4
	c0-0.1,0-0.1,0-0.2l0,0c-0.2,0.4-0.6,0.7-1,0.7c-0.6,0-1-0.3-1-1.1L297.6,27.6z"/>
<path class="st2" d="M300.9,27.6h0.5v0.5c0,0.1,0,0.2,0,0.2l0,0c0.1-0.4,0.5-0.7,0.9-0.8h0.1v0.5c-0.1,0-0.1,0-0.2,0
	c-0.4,0-0.7,0.3-0.8,0.7c-0.1,0.2-0.1,0.3-0.1,0.5v1.2h-0.6L300.9,27.6z"/>
<path class="st2" d="M304.2,27.5c0.7,0,1.2,0.5,1.2,1.2c0,0,0,0.1,0,0.1c0,0.1,0,0.2,0,0.2h-2.1c0,0.5,0.4,0.9,0.9,1c0,0,0,0,0.1,0
	c0.3,0,0.6-0.1,0.9-0.3l0.2,0.4c-0.3,0.3-0.7,0.4-1.1,0.4c-0.8,0-1.5-0.6-1.5-1.4c0-0.1,0-0.1,0-0.2
	C302.7,28.2,303.3,27.6,304.2,27.5C304.1,27.5,304.2,27.5,304.2,27.5z M304.9,28.7c0-0.4-0.2-0.7-0.6-0.7c0,0,0,0-0.1,0
	c-0.4,0-0.8,0.3-0.8,0.7H304.9z"/>
<path class="st2" d="M307,31.2c0.5,0,0.9-0.2,0.9-0.8v-0.2c0-0.1,0-0.2,0-0.2l0,0c-0.2,0.3-0.5,0.5-0.9,0.5c-0.7,0-1.3-0.6-1.3-1.4
	c0,0,0-0.1,0-0.1c-0.1-0.7,0.4-1.4,1.1-1.5c0.1,0,0.1,0,0.2,0c0.4,0,0.7,0.1,0.9,0.4l0,0v-0.4h0.5v2.8c0,0.7-0.6,1.3-1.3,1.3
	c0,0-0.1,0-0.1,0c-0.3,0-0.7-0.1-1-0.2l0.2-0.4C306.4,31.1,306.7,31.2,307,31.2z M307.9,29c0-0.8-0.4-1-0.8-1s-0.8,0.4-0.8,1
	s0.3,1,0.8,1S307.9,29.7,307.9,29L307.9,29z"/>
<path class="st2" d="M310.4,27.5c0.7,0,1.2,0.5,1.3,1.2c0,0,0,0.1,0,0.1c0,0.1,0,0.2,0,0.2h-2.1c0,0.5,0.4,0.9,0.9,1c0,0,0,0,0.1,0
	c0.3,0,0.6-0.1,0.9-0.3l0.2,0.4c-0.3,0.3-0.7,0.4-1.1,0.4c-0.8,0-1.5-0.6-1.6-1.4c0-0.1,0-0.1,0-0.2C309,28.2,309.6,27.6,310.4,27.5
	C310.4,27.5,310.4,27.5,310.4,27.5z M311.1,28.7c0-0.4-0.2-0.7-0.6-0.7c0,0,0,0-0.1,0c-0.4,0-0.8,0.3-0.8,0.7H311.1z"/>
<path class="st2" d="M312.2,27.6h0.5V28c0,0.1,0,0.2,0,0.2l0,0c0.2-0.4,0.6-0.7,1.1-0.7c0.7,0,1,0.4,1,1.1v1.8h-0.5v-1.7
	c0-0.4-0.1-0.7-0.5-0.7c-0.4,0-0.8,0.3-0.9,0.7c0,0.1-0.1,0.3,0,0.4v1.4h-0.5L312.2,27.6z"/>
<path class="st2" d="M316.7,27.5c0.7,0,1.2,0.5,1.3,1.2c0,0.1,0,0.1,0,0.2c0,0.1,0,0.2,0,0.2h-2.1c0,0.5,0.4,0.9,0.9,1
	c0,0,0,0,0.1,0c0.3,0,0.6-0.1,0.9-0.3l0.2,0.4c-0.3,0.3-0.7,0.4-1.1,0.4c-0.8,0.1-1.5-0.6-1.6-1.4c0-0.1,0-0.1,0-0.2
	C315.3,28.2,315.9,27.6,316.7,27.5C316.7,27.5,316.7,27.5,316.7,27.5z M317.4,28.7c0-0.4-0.2-0.7-0.6-0.7c0,0,0,0-0.1,0
	c-0.4,0-0.8,0.3-0.8,0.7H317.4z"/>
<path class="st2" d="M318.6,28.1h-0.4v-0.5h0.4v-0.8h0.5v0.8h0.7v0.5h-0.7v1.3c0,0.3,0.2,0.6,0.5,0.6c0,0,0.1,0,0.1,0h0.1v0.5h-0.2
	c-0.5,0.1-1-0.3-1.1-0.9c0-0.1,0-0.1,0-0.2V28.1z"/>
<path class="st2" d="M320.4,26.5h0.6V27h-0.6L320.4,26.5z M320.4,27.6h0.6v2.9h-0.5L320.4,27.6z"/>
<path class="st2" d="M323,27.5c0.4,0,0.8,0.1,1.1,0.4l-0.3,0.4c-0.2-0.2-0.5-0.3-0.8-0.3c-0.6,0-1,0.4-1,1s0.4,1,1,1
	c0.3,0,0.7-0.2,0.9-0.4l0.2,0.4c-0.3,0.3-0.7,0.5-1.1,0.5c-0.8,0.1-1.6-0.5-1.7-1.3c-0.1-0.8,0.5-1.6,1.3-1.7
	C322.7,27.5,322.9,27.5,323,27.5L323,27.5z"/>
<path class="st2" d="M324.7,29.7c0.2,0.2,0.5,0.3,0.8,0.3c0.2,0,0.5-0.1,0.5-0.4c0-0.5-1.5-0.4-1.5-1.4c0-0.5,0.5-0.8,1-0.8
	c0.3,0,0.7,0.1,0.9,0.3l-0.2,0.4c-0.2-0.2-0.4-0.3-0.7-0.3c-0.2,0-0.5,0.1-0.5,0.4c0,0.5,1.5,0.4,1.5,1.4c0,0.5-0.4,0.8-1,0.8
	c-0.4,0-0.8-0.1-1.1-0.4L324.7,29.7z"/>
<path class="st2" d="M327.1,29.9h0.6v0.6h-0.6V29.9z"/>
<path class="st2" d="M329.7,27.5c0.4,0,0.8,0.1,1.1,0.4l-0.3,0.4c-0.2-0.2-0.5-0.3-0.8-0.3c-0.6,0-1,0.4-1,1s0.4,1,1,1
	c0.3,0,0.7-0.2,0.9-0.4l0.2,0.4c-0.3,0.3-0.7,0.5-1.1,0.5c-0.8,0.1-1.6-0.5-1.7-1.3c-0.1-0.8,0.5-1.6,1.3-1.7
	C329.5,27.5,329.6,27.5,329.7,27.5L329.7,27.5z"/>
<path class="st2" d="M332.7,27.5c0.8,0,1.5,0.7,1.5,1.6c0,0.8-0.7,1.5-1.6,1.5c-0.8,0-1.5-0.7-1.5-1.5
	C331.2,28.2,331.9,27.5,332.7,27.5C332.7,27.5,332.7,27.5,332.7,27.5z M332.7,30.1c0.6,0,1-0.4,1-1s-0.4-1-1-1s-1,0.4-1,1
	S332.1,30.1,332.7,30.1z"/>
<path class="st2" d="M334.8,27.6h0.5V28c0,0.1,0,0.2,0,0.2l0,0c0.2-0.4,0.6-0.6,1-0.7c0.4,0,0.8,0.2,0.9,0.7l0,0
	c0.2-0.4,0.6-0.6,1-0.7c0.6,0,1,0.4,1,1.1v1.8h-0.5v-1.7c0-0.4-0.1-0.7-0.5-0.7c-0.4,0-0.7,0.3-0.8,0.7c0,0.1,0,0.3,0,0.4v1.3h-0.5
	v-1.7c0-0.4-0.1-0.7-0.5-0.7c-0.4,0-0.8,0.3-0.8,0.8c0,0.1,0,0.3,0,0.4v1.3h-0.6L334.8,27.6z"/>
<path class="st1" d="M292.6,189.2h-4.8V116h-6.5v73.3h-73.3v6.5h73.3v4.8c0,6.2,5.1,11.3,11.3,11.3s11.3-5.1,11.3-11.3
	S298.9,189.3,292.6,189.2C292.6,189.3,292.6,189.3,292.6,189.2L292.6,189.2z M292.6,205.4c-2.7,0-4.8-2.2-4.8-4.8v-4.8h4.8
	c2.7,0,4.8,2.2,4.8,4.8C297.4,203.2,295.3,205.4,292.6,205.4L292.6,205.4z"/>
<rect class="st1" width="7.7" height="272.1"/>
<rect x="380.3" class="st1" width="7.8" height="272.1"/>
<path class="st1" d="M54.3,135.6c2.3-0.1,4.5,0.7,6.3,2.1l-0.9,1.3c-1.5-1.2-3.4-1.8-5.3-1.8c-4.3,0-7.2,3.3-7.2,7.6
	c0,4.4,3,7.6,7.1,7.6c2.1-0.1,4.2-1,5.6-2.6v-3h-3v-1.6h4.7v8.5h-1.7v-1.3c0-0.4,0-0.8,0-0.8h0c-1.5,1.6-3.6,2.4-5.8,2.4
	c-4.9,0-8.7-3.9-8.7-9.2c-0.2-4.9,3.7-9.1,8.6-9.2C54.1,135.6,54.2,135.6,54.3,135.6z"/>
<path class="st1" d="M70.6,140.6c3.5,0,5.3,2.7,5.3,5.9c0,0.3,0,0.9,0,0.9h-9.8c-0.1,2.6,1.9,4.9,4.6,5c0.1,0,0.2,0,0.3,0
	c1.4,0,2.8-0.6,3.9-1.5l0.8,1.3c-1.3,1.2-3,1.8-4.7,1.8c-3.6,0.1-6.5-2.7-6.7-6.2c0-0.2,0-0.3,0-0.5
	C64.4,143.2,67.2,140.6,70.6,140.6z M74.2,146c-0.1-2.7-1.7-3.9-3.6-3.9c-2.3,0-4.2,1.7-4.4,3.9H74.2z"/>
<path class="st1" d="M79.2,141H81v1.9c0,0.6,0,1,0,1l0,0c0.9-2,2.8-3.3,5-3.2c3.1,0,4.2,1.8,4.2,4.9v8.1h-1.7V146
	c0-2-0.3-3.8-2.8-3.8c-2.2,0-4.1,1.5-4.6,3.6c-0.2,0.6-0.2,1.1-0.2,1.7v6.1h-1.7V141z"/>
<path class="st1" d="M99.7,140.6c3.5,0,5.3,2.7,5.3,5.9c0,0.3,0,0.9,0,0.9h-9.8c-0.1,2.6,1.9,4.9,4.6,5c0.1,0,0.2,0,0.3,0
	c1.4,0,2.8-0.6,3.9-1.5l0.8,1.3c-1.3,1.1-3,1.8-4.7,1.8c-3.6,0.1-6.5-2.7-6.7-6.2c0-0.2,0-0.3,0-0.5
	C93.4,143.2,96.2,140.6,99.7,140.6z M103.2,146c-0.1-2.7-1.7-3.9-3.6-3.9c-2.3,0-4.2,1.7-4.4,3.9H103.2z"/>
<path class="st1" d="M108.8,142.6h-1.7v-1.4h1.7v-3.7h1.7v3.7h3.2v1.4h-3.2v6.3c0,3,1.9,3.4,2.9,3.4c0.2,0,0.4,0,0.6-0.1v1.5
	c-0.2,0-0.5,0-0.7,0c-1.5,0-4.4-0.5-4.4-4.7V142.6z"/>
<path class="st1" d="M116.7,135.9h1.8v2.1h-1.8V135.9z M116.7,140.9h1.7v12.7h-1.7V140.9z"/>
<path class="st1" d="M128.4,140.6c1.7-0.1,3.4,0.6,4.7,1.8l-0.9,1.3c-1-1-2.3-1.5-3.7-1.5c-2.7-0.1-4.9,2.1-5,4.8c0,0.1,0,0.2,0,0.3
	c-0.1,2.7,2,5,4.8,5.1c0.1,0,0.2,0,0.2,0c1.5,0,3-0.7,4.1-1.8l0.8,1.4c-1.3,1.3-3.1,2-5,2c-3.7,0.1-6.8-2.7-6.9-6.4
	c-0.1-3.7,2.7-6.8,6.4-6.9C128,140.6,128.2,140.6,128.4,140.6L128.4,140.6z"/>
<path class="st1" d="M136.4,150.9c1,1,2.4,1.5,3.8,1.5c1.4,0,2.6-0.7,2.6-2c0-2.8-6.9-2.1-6.9-6.2c0-2.3,2.1-3.5,4.4-3.5
	c1.4-0.1,2.9,0.4,3.9,1.4l-0.8,1.3c-0.9-0.8-2-1.2-3.2-1.2c-1.3,0-2.5,0.6-2.5,2c0,2.8,6.9,2.1,6.9,6.2c0,2.1-1.8,3.6-4.4,3.6
	c-1.8,0-3.5-0.6-4.7-1.9L136.4,150.9z"/>
<g>
	<path class="st3" d="M285.9,254.4h66.4c3,0,5.4-2.4,5.4-5.4v-18.1c0-3-2.4-5.4-5.4-5.4h-66.4c-3,0-5.4,2.4-5.4,5.4V249
		C280.5,252,282.9,254.4,285.9,254.4z"/>
</g>
<g>
	<path class="st4" d="M301.5,235.8h0.9l4.8,6.8c0.3,0.5,0.8,1.3,0.8,1.3h0c0,0-0.1-0.8-0.1-1.3v-6.8h0.9v9.4H308l-4.8-6.8
		c-0.3-0.5-0.8-1.3-0.8-1.3h0c0,0,0.1,0.8,0.1,1.3v6.8h-0.9V235.8z"/>
	<path class="st4" d="M315.9,242.2h-3.8l-1.1,3h-1l3.5-9.4h1l3.5,9.4h-1L315.9,242.2z M314,236.8c0,0-0.2,0.8-0.4,1.2l-1.3,3.4h3.2
		l-1.2-3.4C314.2,237.6,314,236.8,314,236.8L314,236.8z"/>
	<path class="st4" d="M319,235.8h0.9v3.3c0,0.3,0,0.5,0,0.5h0c0,0,0.6-1.3,2.3-1.3c1.8,0,2.9,1.4,2.9,3.5c0,2.1-1.3,3.5-3,3.5
		c-1.6,0-2.2-1.3-2.2-1.3h0c0,0,0,0.2,0,0.5v0.6H319V235.8z M322,244.6c1.2,0,2.2-1,2.2-2.7c0-1.6-0.9-2.7-2.1-2.7
		c-1.1,0-2.2,0.8-2.2,2.7C319.8,243.2,320.5,244.6,322,244.6z"/>
	<path class="st4" d="M326.7,241h3.8v0.8h-3.8V241z"/>
	<path class="st4" d="M333.8,236.6h-3.4v-0.8h7.7v0.8h-3.4v8.6h-0.9V236.6z"/>
</g>
</svg>
