<svg id="Layer_1" data-name="Layer 1" xmlns="http://www.w3.org/2000/svg" viewBox="0 0 388 272"><defs><style>.cls-1{fill:#8dc7e9;}.cls-2{fill:none;}.cls-3{fill:#27387a;}.cls-4{fill:#f16458;}.cls-5{fill:#fff;}</style></defs><rect class="cls-1" x="7.66" y="-0.04" width="380.34" height="272.09"/><rect class="cls-2" x="-5.62" y="2.38" width="369.95" height="269.24"/><path class="cls-3" d="M217.53,112.34a.45.45,0,0,0-.69.1c-3,4.7-9.56,6-13.1,4.24-.31-.15-.66-.43-.36-.73,0,0,12-10,13.5-11.25a3.85,3.85,0,0,0,.52-5.45A13.55,13.55,0,0,0,196.13,116a5.37,5.37,0,0,1-3.86,1.49,5.25,5.25,0,0,1-5.31-5.21V105a12.68,12.68,0,0,0-1.3-6.27c-1-1.78-3.14-3.89-7.63-3.89h-6.85V93.2a6,6,0,1,0-5.95,6h1.59v12c0,4.43-2.36,6.23-5.13,6.23s-5-1.9-5-4.41V95.35a.47.47,0,0,0-.46-.46H152.5a.47.47,0,0,0-.46.46v14c-.07,4.29-3.09,7.78-7.5,7.78-4.13,0-7.5-3.09-7.5-6.88V95.35a.46.46,0,0,0-.45-.46h-3.72a.46.46,0,0,0-.45.46v14.9a7,7,0,0,1-6.91,6.92,6.8,6.8,0,0,1-7.23-7V99.28h9.06a.47.47,0,0,0,.46-.46V95.3a.46.46,0,0,0-.46-.45h-9.06V87.18a.46.46,0,0,0-.46-.45h-3.67a.45.45,0,0,0-.45.45V107.4c-.15,3.28-3.24,9.94-12.14,10-4.41,0-8.2-2.29-9.59-6.26-1.57-4.47.25-12.71,7.55-12.69,3.73,0,5.79,2.17,6,4.23a.48.48,0,0,0,.49.45h3.35a.48.48,0,0,0,.49-.52v0c-.26-4.53-4.21-8.39-10.32-8.34-5.79.05-12.6,4.09-12.75,13.36A14.52,14.52,0,0,0,89,115.53a4.93,4.93,0,0,1-4.16,1.93c-2.77,0-5-1.9-5-4.41V95.17a.46.46,0,0,0-.46-.45H75.68a.46.46,0,0,0-.46.45v13c0,4.55-.24,6.61,1.49,9.24a9.67,9.67,0,0,0,8.15,4.29,8.57,8.57,0,0,0,6.83-3.17,15.16,15.16,0,0,0,9.71,3.16c5.79.07,11.16-2.8,13.45-6.41h0a11.36,11.36,0,0,0,10.4,6.42,10.71,10.71,0,0,0,9.24-5.08,12.29,12.29,0,0,0,10,5.07,11.71,11.71,0,0,0,9-4.29,9.77,9.77,0,0,0,8.15,4.29c5.32,0,9.5-4.08,9.5-10.62V99.2h7.1c3.26,0,4.3,1.35,4.3,5.54v7.54a9.72,9.72,0,0,0,9.94,9.45,10.21,10.21,0,0,0,6.77-2.56,13.52,13.52,0,0,0,7.9,2.55A15.17,15.17,0,0,0,220,115.09a.47.47,0,0,0-.07-.61ZM166.81,94.8h-1.73a1.74,1.74,0,1,1,1.73-1.74Zm32.81,18.11a9.68,9.68,0,0,1,1.52-12.11,9.37,9.37,0,0,1,12.37.34.63.63,0,0,1,0,.92l-13.19,11A.45.45,0,0,1,199.62,112.91Z"/><path class="cls-3" d="M59.27,84.79H45.88a.46.46,0,0,0-.45.46v35.62a.46.46,0,0,0,.45.46H49.6a.46.46,0,0,0,.45-.46V110.74a.45.45,0,0,1,.46-.45h8.76A11.76,11.76,0,0,0,68,106.58,13.87,13.87,0,0,0,68,88.5,11.76,11.76,0,0,0,59.27,84.79Zm0,21.07H50.51a.45.45,0,0,1-.46-.45V89.69a.46.46,0,0,1,.46-.46h8.76c4.34,0,7.47,3.43,7.47,8.31S63.61,105.86,59.27,105.86Z"/><polygon class="cls-3" points="218.92 95.39 220.09 95.39 220.09 98.41 220.74 98.41 220.74 95.39 221.92 95.39 221.92 94.83 218.92 94.83 218.92 95.39"/><path class="cls-3" d="M225.71,94.83H225l-.7,1.77c-.08.21-.18.53-.18.53h0s-.1-.32-.18-.53l-.7-1.77h-.7l-.29,3.58h.65l.15-2c0-.24,0-.56,0-.56h0s.11.36.2.56l.57,1.39h.57l.58-1.39c.08-.2.19-.55.19-.55h0s0,.31,0,.55l.15,2H226Z"/><path class="cls-4" d="M288.26,27.6h.51v.25a1.21,1.21,0,0,1,0,.21h0a1,1,0,0,1,1-.53c.78,0,1.27.62,1.27,1.51a1.35,1.35,0,0,1-1.31,1.51,1,1,0,0,1-.88-.47h0s0,.1,0,.25v1.29h-.55Zm1.35,2.48c.45,0,.83-.38.83-1s-.34-1-.81-1-.84.3-.84,1A.93.93,0,0,0,289.61,30.08Z"/><path class="cls-4" d="M291.53,26.46h.55V27h-.55Zm0,1.14h.55v2.88h-.55Z"/><path class="cls-4" d="M294.15,27.53a1.46,1.46,0,0,1,1.08.42l-.26.39a1.18,1.18,0,0,0-.8-.33,1,1,0,0,0-1,1,1,1,0,0,0,1,1,1.32,1.32,0,0,0,.89-.39l.22.41a1.58,1.58,0,0,1-1.15.46,1.51,1.51,0,1,1,0-3Z"/><path class="cls-4" d="M295.9,28.09h-.37v-.45h.39v-.83h.54v.83h.69v.45h-.69v1.28a.56.56,0,0,0,.61.64h.13v.49H297a1,1,0,0,1-1.11-1.07Z"/><path class="cls-4" d="M297.64,27.6h.55v1.72c0,.4.08.72.54.72a1,1,0,0,0,.94-1.09V27.6h.55v2.88h-.54V30.1a1.07,1.07,0,0,1,0-.21h0a1.16,1.16,0,0,1-1.05.66c-.65,0-1-.34-1-1.11Z"/><path class="cls-4" d="M300.94,27.6h.54v.5c0,.12,0,.22,0,.22h0a1,1,0,0,1,.91-.75h.14v.55a.65.65,0,0,0-.16,0,.87.87,0,0,0-.8.68,1.46,1.46,0,0,0-.07.51v1.18h-.56Z"/><path class="cls-4" d="M304.18,27.53a1.23,1.23,0,0,1,1.24,1.35c0,.08,0,.24,0,.24h-2.1a.94.94,0,0,0,1,.95,1.37,1.37,0,0,0,.85-.34l.23.41a1.73,1.73,0,0,1-1.12.41A1.47,1.47,0,0,1,302.74,29,1.42,1.42,0,0,1,304.18,27.53Zm.68,1.18a.68.68,0,0,0-.69-.74.82.82,0,0,0-.84.74Z"/><path class="cls-4" d="M307,31.2c.5,0,.91-.23.91-.81v-.21c0-.09,0-.18,0-.18h0a.93.93,0,0,1-.86.45A1.33,1.33,0,0,1,305.77,29,1.28,1.28,0,0,1,307,27.53a1,1,0,0,1,.9.43h0V27.6h.53v2.76A1.3,1.3,0,0,1,307,31.67a2.15,2.15,0,0,1-1-.24l.18-.43A1.82,1.82,0,0,0,307,31.2Zm.92-2.22c0-.75-.36-1-.81-1s-.78.37-.78.95.32,1,.83,1S307.92,29.73,307.92,29Z"/><path class="cls-4" d="M310.43,27.53a1.23,1.23,0,0,1,1.25,1.35c0,.08,0,.24,0,.24h-2.1a.94.94,0,0,0,1,.95,1.33,1.33,0,0,0,.85-.34l.23.41a1.72,1.72,0,0,1-1.11.41A1.47,1.47,0,0,1,309,29,1.42,1.42,0,0,1,310.43,27.53Zm.68,1.18a.68.68,0,0,0-.69-.74.82.82,0,0,0-.84.74Z"/><path class="cls-4" d="M312.21,27.6h.53V28c0,.12,0,.21,0,.21h0a1.19,1.19,0,0,1,1.08-.66c.68,0,1,.37,1,1.11v1.84h-.55V28.76c0-.4-.08-.72-.54-.72a.94.94,0,0,0-.91.7,1.23,1.23,0,0,0-.05.39v1.35h-.55Z"/><path class="cls-4" d="M316.74,27.53A1.23,1.23,0,0,1,318,28.88c0,.08,0,.24,0,.24h-2.1a.94.94,0,0,0,1,.95,1.37,1.37,0,0,0,.85-.34l.23.41a1.73,1.73,0,0,1-1.12.41A1.47,1.47,0,0,1,315.3,29,1.42,1.42,0,0,1,316.74,27.53Zm.68,1.18a.68.68,0,0,0-.69-.74.82.82,0,0,0-.84.74Z"/><path class="cls-4" d="M318.64,28.09h-.38v-.45h.39v-.83h.54v.83h.69v.45h-.69v1.28a.56.56,0,0,0,.61.64h.13v.49h-.19a1,1,0,0,1-1.1-1.07Z"/><path class="cls-4" d="M320.41,26.46H321V27h-.56Zm0,1.14H321v2.88h-.55Z"/><path class="cls-4" d="M323,27.53a1.46,1.46,0,0,1,1.08.42l-.26.39a1.18,1.18,0,0,0-.8-.33,1,1,0,0,0-1,1,1,1,0,0,0,1,1,1.32,1.32,0,0,0,.89-.39l.22.41a1.58,1.58,0,0,1-1.15.46,1.51,1.51,0,1,1,0-3Z"/><path class="cls-4" d="M324.7,29.73a1.21,1.21,0,0,0,.82.34c.24,0,.48-.12.48-.36,0-.53-1.48-.42-1.48-1.36,0-.52.47-.82,1-.82a1.28,1.28,0,0,1,.93.32l-.22.42a1.06,1.06,0,0,0-.71-.26c-.24,0-.47.1-.47.35,0,.52,1.48.41,1.48,1.35,0,.48-.41.84-1.05.84a1.56,1.56,0,0,1-1.09-.42Z"/><path class="cls-4" d="M327.08,29.89h.58v.59h-.58Z"/><path class="cls-4" d="M329.72,27.53a1.46,1.46,0,0,1,1.08.42l-.26.39a1.18,1.18,0,0,0-.8-.33,1,1,0,0,0-1,1,1,1,0,0,0,1,1,1.32,1.32,0,0,0,.89-.39l.22.41a1.58,1.58,0,0,1-1.15.46,1.51,1.51,0,1,1,0-3Z"/><path class="cls-4" d="M332.7,27.53A1.51,1.51,0,1,1,331.14,29,1.51,1.51,0,0,1,332.7,27.53Zm0,2.54a1,1,0,1,0-1-1A1,1,0,0,0,332.7,30.07Z"/><path class="cls-4" d="M334.76,27.6h.54V28c0,.12,0,.21,0,.21h0a1.14,1.14,0,0,1,1-.66.79.79,0,0,1,.86.66h0a1.16,1.16,0,0,1,1-.66c.65,0,.95.37.95,1.11v1.84h-.55V28.76c0-.41-.08-.73-.52-.73a.9.9,0,0,0-.8.74,1.64,1.64,0,0,0,0,.4v1.31h-.55V28.76c0-.38-.06-.73-.5-.73a.91.91,0,0,0-.83.76,1.54,1.54,0,0,0,0,.38v1.31h-.56Z"/><path class="cls-5" d="M292.63,189.24H287.8V116h-6.48v73.27H208.06v6.48h73.26v4.84a11.31,11.31,0,1,0,11.31-11.3Zm0,16.12a4.84,4.84,0,0,1-4.83-4.82v-4.82h4.83a4.82,4.82,0,0,1,0,9.64Z"/><rect class="cls-3" width="7.66" height="272.09"/><rect class="cls-3" x="380.34" width="7.82" height="272.09"/><rect class="cls-5" x="-5.62" y="27.58" width="52.82" height="6.48"/><path class="cls-3" d="M51.5,136H45.42v17.58h1.73v-6.9H51.5a5.34,5.34,0,1,0,0-10.68Zm-.23,9.13H47.15v-7.58H51.3a3.52,3.52,0,0,1,3.85,3.75A3.58,3.58,0,0,1,51.27,145.17Z"/><path class="cls-3" d="M63.35,140.74a7.22,7.22,0,0,0-4.48,1.43l.8,1.3a6.14,6.14,0,0,1,3.55-1.2c1.8,0,3.13.82,3.13,3.25v.32h-.7c-2.18,0-7.7.1-7.7,4.35,0,2.5,2.17,3.73,4.27,3.73a4.54,4.54,0,0,0,4.2-2.73h0a10.06,10.06,0,0,0,0,1.05v1.38h1.63v-8.05C68.05,142.42,66.37,140.74,63.35,140.74Zm3,7c0,2.18-1.45,4.68-3.85,4.68a2.5,2.5,0,0,1-2.8-2.38c0-2.77,3.95-2.85,5.92-2.85h.73Z"/><path class="cls-3" d="M73.16,144.27h0s0-.45,0-1V141H71.49v12.58h1.7v-5.3a8.3,8.3,0,0,1,.35-2.45c.55-1.85,1.87-3.25,3.65-3.25a4.28,4.28,0,0,1,.62,0V141a3.54,3.54,0,0,0-.67-.07A4.29,4.29,0,0,0,73.16,144.27Z"/><path class="cls-3" d="M84.79,140.74c-3.4,0-6.2,2.48-6.2,6.6a6.36,6.36,0,0,0,6.58,6.58,7.22,7.22,0,0,0,4.65-1.75l-.78-1.3a5.83,5.83,0,0,1-3.82,1.52,4.74,4.74,0,0,1-4.88-5H90s.05-.58.05-.88C90,143.42,88.27,140.74,84.79,140.74ZM80.42,146a4.25,4.25,0,0,1,4.32-3.85c1.88,0,3.48,1.22,3.58,3.85Z"/><path class="cls-3" d="M99.36,140.74a5.35,5.35,0,0,0-5,3.18h0s0-.45,0-1V141H92.66v12.58h1.7v-6a6.24,6.24,0,0,1,.2-1.7,4.8,4.8,0,0,1,4.58-3.55c2.42,0,2.72,1.75,2.72,3.73v7.55h1.7v-8C103.56,142.52,102.46,140.74,99.36,140.74Z"/><path class="cls-3" d="M109,148.87v-6.25h3.15v-1.43H109v-3.62h-1.67v3.62h-1.68v1.43h1.65V149c0,4.2,2.93,4.68,4.38,4.68a4.37,4.37,0,0,0,.72-.05v-1.53a2.83,2.83,0,0,1-.57.05C110.91,152.19,109,151.82,109,148.87Z"/><rect class="cls-3" x="114.92" y="136.04" width="1.77" height="2.12"/><rect class="cls-3" x="114.97" y="141.04" width="1.7" height="12.57"/><path class="cls-3" d="M126.93,140.74a5.36,5.36,0,0,0-5,3.18h-.05s.05-.45.05-1V141h-1.67v12.58h1.7v-6a6.24,6.24,0,0,1,.2-1.7,4.77,4.77,0,0,1,4.57-3.55c2.43,0,2.73,1.75,2.73,3.73v7.55h1.7v-8C131.13,142.52,130,140.74,126.93,140.74Z"/><path class="cls-3" d="M143.22,142.42a2.37,2.37,0,0,0,0,.42h-.05s-.83-2.1-4.15-2.1-5.45,2.58-5.45,6.35,2.22,6.45,5.6,6.45a4.13,4.13,0,0,0,4-2.2h.05a8.81,8.81,0,0,0-.05.9v1.15c0,2.8-1.95,4-4.4,4a7.75,7.75,0,0,1-3.4-.87l-.65,1.4a9.32,9.32,0,0,0,4.13,1c3.07,0,6-1.55,6-5.55V141h-1.65Zm-3.75,9.6c-2.5,0-4.12-2-4.12-5s1.42-4.78,3.87-4.78c2.23,0,4,1.13,4,4.8S141.45,152,139.47,152Z"/><path class="cls-3" d="M77.4,90.9h2.37a.39.39,0,0,0,.39-.39V88.07a2.87,2.87,0,0,0-2.8-2.86A2.83,2.83,0,0,0,74.5,88.1,2.88,2.88,0,0,0,77.4,90.9Z"/></svg>